<svg version="1.0" xmlns="http://www.w3.org/2000/svg" width="700.000000pt" height="142.000000pt" viewBox="0 0 700.000000 142.000000" preserveAspectRatio="xMidYMid meet">
<metadata>
Created by potrace 1.12, written by Peter Selinger 2001-2015
</metadata>
<g transform="translate(0.000000,142.000000) scale(0.100000,-0.100000)" fill="#000000" stroke="none">
<path d="M320 1150 c-26 -26 -32 -53 -28 -130 l3 -65 78 -3 77 -3 0 86 c0 78 -2 88 -25 110 -30 31 -77 33 -105 5z"/>
<path d="M510 1145 c6 -15 10 -153 10 -328 0 -282 1 -304 20 -334 26 -44 82 -61 131 -40 48 20 69 66 69 151 l0 66 200 0 200 0 0 190 c0 214 -8 246 -72 292 -32 23 -39 23 -300 26 l-268 3 10 -26z"/>
<path d="M1680 1071 c-72 -22 -129 -72 -149 -130 -15 -47 -14 -79 8 -126 22 -49 67 -74 194 -106 99 -25 137 -53 137 -101 0 -44 -17 -68 -63 -89 -71 -32 -212 -19 -279 25 -29 19 -54 13 -61 -15 -14 -52 99 -99 236 -99 80 0 100 4 145 26 70 35 95 72 100 149 4 55 1 64 -23 93 -35 42 -84 66 -160 82 -33 6 -79 20 -102 31 -97 46 -68 158 49 190 54 14 120 4 186 -27 59 -29 82 -26 82 10 0 32 -38 62 -103 81 -53 16 -154 19 -197 6z"/>
<path d="M3431 1066 c-17 -21 -83 -422 -85 -514 -1 -69 1 -75 28 -98 24 -21 37 -24 85 -22 56 3 56 3 59 36 3 30 1 33 -16 28 -27 -9 -71 13 -78 39 -5 19 29 263 57 405 16 81 9 134 -17 138 -11 2 -26 -4 -33 -12z"/>
<path d="M3706 1058 c-9 -12 -16 -32 -16 -44 0 -12 -9 -73 -19 -135 -47 -279 -54 -336 -47 -371 10 -53 45 -78 113 -78 48 0 54 2 63 26 12 31 4 47 -20 39 -26 -8 -70 15 -76 42 -4 13 1 65 10 116 56 327 66 400 55 414 -17 20 -46 16 -63 -9z"/>
<path d="M6112 1067 c-16 -18 -106 -568 -100 -608 4 -32 52 -39 67 -11 7 14 31 158 31 189 0 15 31 -14 110 -102 79 -89 98 -106 119 -103 49 6 38 39 -43 131 -42 46 -76 88 -76 93 0 5 43 46 95 92 94 83 114 115 78 129 -22 9 -45 -7 -163 -111 -55 -49 -103 -87 -105 -84 -5 4 -2 21 35 247 16 94 18 126 9 137 -14 18 -43 18 -57 1z"/>
<path d="M4512 1057 c-11 -12 -24 -85 -78 -426 -35 -219 -46 -204 156 -198 158 4 217 19 287 73 75 57 123 170 123 289 0 96 -17 142 -70 195 -64 64 -119 80 -280 80 -91 0 -131 -4 -138 -13z m298 -77 c73 -37 104 -91 103 -180 -1 -115 -34 -194 -104 -246 -47 -35 -90 -44 -207 -44 l-103 0 6 48 c4 26 13 83 21 127 7 44 20 129 29 189 9 60 19 114 22 119 8 14 203 3 233 -13z"/>
<path d="M2208 871 c-109 -36 -165 -134 -156 -276 7 -107 58 -157 167 -163 104 -6 182 28 165 72 -7 19 -11 18 -92 -6 -60 -18 -120 3 -145 52 -39 75 -4 210 63 245 39 20 134 19 166 -2 23 -15 27 -15 41 0 37 37 -20 78 -115 83 -37 2 -79 0 -94 -5z"/>
<path d="M2542 868 c-11 -14 -62 -317 -65 -388 l-2 -45 35 0 35 0 18 110 c27 158 35 185 71 221 24 24 45 34 82 39 59 9 74 19 74 51 0 20 -5 24 -28 24 -46 0 -94 -18 -124 -47 l-28 -27 0 31 c0 40 -44 60 -68 31z"/>
<path d="M2960 867 c-19 -6 -53 -30 -76 -52 -104 -105 -98 -301 11 -362 53 -30 159 -32 214 -3 72 36 116 106 127 202 12 102 -38 196 -114 218 -46 13 -117 11 -162 -3z m157 -79 c48 -45 53 -125 13 -215 -42 -96 -169 -114 -220 -31 -53 87 3 246 95 271 34 9 89 -4 112 -25z"/>
<path d="M4025 862 c-76 -36 -118 -94 -135 -185 -19 -99 8 -176 79 -224 27 -18 48 -23 103 -23 83 0 130 21 181 80 84 99 75 283 -18 340 -52 32 -155 38 -210 12z m157 -63 c10 -5 25 -24 34 -41 21 -41 14 -144 -13 -190 -59 -101 -188 -104 -228 -6 -35 89 12 213 95 247 26 11 82 6 112 -10z"/>
<path d="M5240 867 c-93 -31 -158 -150 -147 -269 6 -67 21 -95 74 -135 31 -24 47 -28 115 -32 58 -2 92 1 124 14 52 20 74 50 52 71 -12 13 -20 12 -59 -5 -93 -43 -195 -18 -225 55 -29 68 -28 68 156 74 l165 5 3 50 c3 59 -27 127 -71 159 -33 24 -133 31 -187 13z m159 -68 c24 -23 41 -59 41 -90 0 -18 -8 -19 -130 -19 -88 0 -130 4 -130 11 0 27 36 83 64 100 44 27 125 26 155 -2z"/>
<path d="M5725 866 c-158 -58 -198 -336 -60 -413 81 -45 245 -22 253 36 5 29 -21 37 -62 17 -110 -52 -208 22 -191 146 9 65 25 98 65 132 26 22 41 26 91 26 35 0 73 -7 90 -15 35 -19 49 -13 49 20 0 17 -9 29 -32 41 -45 23 -153 28 -203 10z"/>
<path d="M810 557 c0 -56 -36 -126 -79 -154 l-34 -23 240 0 240 0 44 29 c55 37 80 79 82 139 l2 47 -247 3 -248 2 0 -43z"/>
</g>
</svg>